<svg version="1.1" id="Layer_1" xmlns="http://www.w3.org/2000/svg" xmlns:xlink="http://www.w3.org/1999/xlink" x="0px" y="0px"
	 width="100%" viewBox="0 0 512 304" enable-background="new 0 0 512 304" xml:space="preserve">
<path fill="#000000" opacity="1.000000" stroke="none" 
	d="
M428.594238,189.154907 
	C435.283630,185.511383 438.958710,179.421295 442.951111,173.760452 
	C448.791382,165.479507 456.001556,159.210831 465.642395,155.789734 
	C468.611786,154.736038 471.449341,154.548203 474.401062,155.478348 
	C475.271576,155.752655 475.966797,156.987015 477.042999,156.065933 
	C479.039246,154.357468 480.842102,154.931259 482.216736,156.721542 
	C483.938049,158.963425 483.500824,161.426559 482.208130,163.753220 
	C479.378265,168.846558 476.506989,173.916901 473.664551,179.003311 
	C471.957520,182.058014 470.729218,185.262299 470.399261,190.281448 
	C480.537933,185.967957 483.686768,175.738190 490.708191,169.540558 
	C491.350342,170.555145 491.736877,170.937759 491.662506,171.080994 
	C487.496063,179.103088 482.539154,186.602112 474.943665,191.731064 
	C469.762482,195.229752 465.867004,192.613754 463.492676,184.340988 
	C459.174896,187.061020 456.459320,192.072464 451.100677,192.907745 
	C446.510681,193.623199 443.861603,191.180725 440.388153,183.121796 
	C438.328613,185.225830 436.470428,187.292496 434.434448,189.165955 
	C431.104004,192.230606 427.477356,194.692139 422.859436,191.732056 
	C419.538239,189.603149 418.456177,184.341339 420.620636,179.444611 
	C423.040009,173.971207 426.003815,168.740738 428.558258,163.323242 
	C429.214630,161.931244 430.627350,160.616302 429.808136,158.473770 
	C425.456238,158.438080 423.129242,161.597946 420.758453,164.421875 
	C415.275909,170.952332 411.057953,178.342102 406.775543,185.677216 
	C406.187653,186.684235 405.678162,187.744644 405.014496,188.698303 
	C403.560608,190.787277 402.492828,194.151260 399.032776,192.164658 
	C395.682678,190.241165 396.355316,187.051514 397.907104,184.256729 
	C401.462921,177.852829 405.218506,171.560120 408.850861,165.198212 
	C409.653870,163.791748 410.825562,162.483749 410.570007,160.249390 
	C407.582703,160.271378 406.259460,162.591095 404.816925,164.357697 
	C400.081329,170.157181 395.513550,176.094040 390.899841,181.992645 
	C388.121674,185.544540 385.314941,189.079605 381.400726,191.467621 
	C375.695160,194.948547 370.212646,191.992920 369.746063,185.376633 
	C369.326965,179.433365 372.980194,175.023254 375.210724,170.082886 
	C376.883301,166.378326 379.564636,163.108475 380.282318,158.626602 
	C376.476715,158.026764 374.503143,160.402435 372.532166,162.503510 
	C365.976410,169.491974 361.438690,177.869827 356.587952,186.025848 
	C356.077423,186.884216 355.715210,187.838928 355.147125,188.653351 
	C353.685486,190.748947 352.580292,194.071198 349.151611,192.223740 
	C345.746887,190.389191 346.332947,187.185104 347.890320,184.368271 
	C351.676605,177.519852 355.655334,170.778015 359.506317,163.964844 
	C359.969513,163.145401 360.122650,162.150711 360.665863,160.479187 
	C357.103699,161.305298 355.420319,163.494217 353.776947,165.623962 
	C349.897430,170.651688 345.585266,175.252426 340.597443,179.186310 
	C337.702362,181.469650 334.682678,183.569107 330.711853,183.363052 
	C328.853973,183.266647 327.692535,184.425720 326.433746,185.576447 
	C324.353760,187.477844 322.321075,189.545532 319.926544,190.967285 
	C311.993195,195.677780 304.948975,192.136398 303.673798,183.007553 
	C303.589813,182.406128 303.418549,181.816864 303.152924,180.607574 
	C300.457916,183.582489 298.174500,186.142395 295.845917,188.660507 
	C294.121582,190.525177 292.073669,192.000656 289.627197,192.690063 
	C284.189545,194.222366 281.071899,191.153412 280.409393,183.321030 
	C276.019348,186.931503 273.119690,192.402023 267.002686,192.944931 
	C261.737000,193.412292 258.835358,189.964676 257.112396,181.505280 
	C254.870941,184.007187 252.836533,186.614746 250.463120,188.864655 
	C243.074661,195.868591 237.875595,194.300720 235.239685,183.918823 
	C233.418762,185.611252 231.778336,187.150009 230.122635,188.672150 
	C225.098328,193.291199 221.560394,194.167358 217.722946,191.755371 
	C213.778015,189.275833 211.707108,183.071762 213.388931,177.899719 
	C217.211121,166.145370 230.314713,157.323471 240.567520,155.009232 
	C244.220184,154.184784 247.768127,156.279190 251.693085,155.376221 
	C254.470291,154.737289 256.147644,159.345123 254.346573,162.863052 
	C251.844055,167.751144 249.031631,172.480865 246.340439,177.271957 
	C244.308456,180.889435 242.705872,184.662354 241.757965,189.043777 
	C245.508240,189.829361 247.426422,187.529755 249.472992,185.469025 
	C255.005280,179.898438 258.690887,172.826813 264.347656,167.339188 
	C269.556091,162.286484 275.260437,158.137802 282.212158,155.782715 
	C284.671051,154.949707 287.397736,154.185760 289.515015,155.266296 
	C293.490295,157.295029 294.608948,154.899124 296.348785,152.257858 
	C303.650787,141.172821 309.130676,128.788651 319.354797,119.767677 
	C324.566193,115.169548 330.514740,112.528030 337.559509,113.070862 
	C340.932281,113.330750 344.396271,113.975983 345.200073,118.104599 
	C346.032227,122.378906 344.180084,125.602600 340.545624,127.759201 
	C338.500366,128.972809 336.322968,129.028931 334.696350,126.986404 
	C332.963562,124.810654 334.009674,122.816040 335.692444,121.259048 
	C336.985687,120.062500 338.624146,119.239082 340.516449,117.978317 
	C336.071075,114.653656 332.361176,116.485558 328.904175,118.684349 
	C324.862701,121.254883 322.460724,125.369446 320.013489,129.336151 
	C309.528503,146.331375 298.414459,162.951736 289.273193,180.750519 
	C287.920959,183.383331 286.433838,185.984787 287.202118,189.401352 
	C290.305817,189.461761 292.213013,187.692902 294.073212,185.809540 
	C299.485962,180.329468 303.657928,173.877731 308.293732,167.783920 
	C314.093872,160.159515 321.523346,155.135284 331.421906,154.912811 
	C337.220367,154.782471 339.028503,156.996140 338.920135,162.925323 
	C338.853577,166.566269 337.207306,169.651718 335.773926,172.822968 
	C334.756592,175.073700 333.115356,177.049423 332.683868,179.933746 
	C335.697083,180.024857 337.815155,178.546585 339.679932,176.658249 
	C343.420349,172.870544 347.244263,169.173080 350.512360,164.924698 
	C353.044678,161.632767 355.834564,158.514389 359.568268,156.433929 
	C364.981201,153.417801 367.399109,154.461472 368.682068,160.493637 
	C370.309235,160.757980 370.901733,159.305862 371.844360,158.506729 
	C375.172455,155.685379 378.658386,153.304489 383.030548,156.202072 
	C386.413391,158.443985 387.276733,163.727051 384.998962,168.493195 
	C382.776520,173.143555 380.271057,177.664276 377.753143,182.165436 
	C376.505981,184.394974 375.747406,186.608429 376.102203,189.361389 
	C380.010986,189.551331 382.242767,187.327042 384.242218,184.899231 
	C389.533234,178.474533 394.730164,171.972351 399.961792,165.498779 
	C402.684052,162.130264 405.318939,158.702255 409.265564,156.577087 
	C414.993134,153.492874 417.271942,154.392365 418.843689,160.574509 
	C420.390594,160.534836 420.982544,159.158218 421.911987,158.310471 
	C425.070190,155.429947 428.554871,153.549057 432.728119,155.815292 
	C436.161346,157.679672 437.381653,163.395416 435.224304,168.002640 
	C432.758179,173.269165 429.800354,178.303421 427.142609,183.482956 
	C425.296753,187.080261 425.571838,188.165939 428.594238,189.154907 
M276.292664,181.792786 
	C280.780670,175.631149 286.378876,170.213333 289.018799,162.813766 
	C289.462128,161.571152 290.149567,160.280212 288.990295,159.084747 
	C287.711456,157.765991 286.262970,158.225525 284.837006,158.846069 
	C278.951569,161.407211 275.072388,166.263596 271.259125,171.073166 
	C267.856140,175.365219 264.657745,179.870193 263.721466,185.509659 
	C263.490051,186.903519 263.513550,188.210754 264.684631,189.158234 
	C265.956390,190.187164 267.177277,189.482315 268.395142,188.890472 
	C271.482330,187.390213 273.613678,184.811981 276.292664,181.792786 
M230.107956,183.612076 
	C235.372971,177.372849 240.643738,171.129379 244.162827,163.671570 
	C244.825729,162.266693 246.226685,160.696335 244.707764,159.095612 
	C243.104950,157.406479 241.183060,158.259201 239.649612,159.182404 
	C229.357086,165.378922 222.771011,174.585510 218.971619,185.779633 
	C217.971252,188.727005 219.880875,190.191727 222.943710,189.247467 
	C225.764786,188.377716 227.526932,186.007187 230.107956,183.612076 
M454.104248,187.684647 
	C461.512878,181.084991 467.011627,172.989685 471.989502,164.527832 
	C472.910004,162.963120 474.430908,160.843826 472.620300,159.063065 
	C470.615784,157.091599 468.336243,158.680695 466.736359,159.838806 
	C458.255005,165.978256 451.361694,173.465134 447.993958,183.657471 
	C447.431976,185.358215 446.515167,187.282425 448.101410,188.816406 
	C450.048645,190.699432 451.755920,188.775101 454.104248,187.684647 
M320.613892,187.209930 
	C323.668060,185.239761 324.925598,183.014786 324.011444,178.935486 
	C322.538055,172.360718 326.352234,167.478561 333.250122,165.933258 
	C334.707367,165.606781 335.161652,164.764130 335.477722,163.653015 
	C335.969635,161.923813 335.631165,160.316574 334.227875,159.119690 
	C332.381073,157.544479 330.410736,158.134460 328.685089,159.252090 
	C319.145081,165.430786 313.586578,174.493668 310.706482,185.219070 
	C309.801208,188.590240 312.147949,190.171982 315.442596,189.553864 
	C317.025757,189.256836 318.482147,188.284058 320.613892,187.209930 
M332.283661,172.098465 
	C332.651886,170.991333 333.129730,169.862366 331.707764,169.104980 
	C326.710449,171.979584 325.927124,174.072495 328.662811,177.352005 
	C330.789246,176.534698 331.035309,174.353455 332.283661,172.098465 
z"/>
<path fill="#000000" opacity="1.000000" stroke="none" 
	d="
M145.376755,112.374634 
	C147.818085,110.083412 149.920517,107.943367 152.578995,106.462090 
	C154.222672,105.546234 155.819031,104.514900 157.602982,106.034966 
	C159.380493,107.549553 159.446533,109.446907 158.639603,111.488754 
	C156.311539,117.379662 153.569595,123.067169 150.491272,128.606522 
	C143.931366,140.410812 136.413101,151.609787 129.113754,162.953262 
	C122.083473,173.878601 118.490990,186.158264 116.155998,198.795624 
	C115.429466,202.727768 113.390770,206.634140 115.814064,210.919022 
	C117.610222,214.095016 119.417831,214.943069 122.586937,213.131912 
	C130.620514,208.540680 135.990738,201.224991 141.689316,194.315796 
	C159.800446,172.357071 176.091049,148.899124 195.909363,128.347260 
	C207.627335,116.195557 219.962769,104.810089 235.671494,97.839592 
	C241.509491,95.249069 247.506088,93.898857 253.875580,95.026009 
	C253.927704,96.496681 253.230392,96.944412 252.354401,97.002869 
	C241.299423,97.740662 233.479645,104.205299 226.961929,112.195847 
	C215.109390,126.726700 207.832764,143.706894 202.344604,161.465271 
	C197.925766,175.763596 194.715378,190.315857 193.463501,205.300858 
	C192.981873,211.065979 193.609726,216.660110 194.787628,222.132477 
	C196.353928,229.409286 203.314606,233.300446 212.218811,231.596527 
	C227.775970,228.619492 240.379807,221.010849 248.001907,206.513687 
	C248.776413,205.040588 249.424072,203.482285 250.965393,202.593277 
	C252.544891,201.682205 254.148209,201.485855 255.604843,202.746964 
	C257.175140,204.106476 257.605316,205.783417 256.485260,207.653091 
	C256.062408,208.358948 255.654114,209.195709 255.008286,209.627350 
	C246.140518,215.554199 238.975891,223.638184 229.746887,229.160751 
	C221.753403,233.943985 213.237350,235.147186 204.289337,234.231949 
	C199.072418,233.698334 194.879761,230.959366 192.016144,226.512970 
	C188.055313,220.362946 186.235489,213.478821 185.996185,206.254578 
	C185.135849,180.283142 191.635101,155.934753 202.525467,132.578552 
	C202.978333,131.607315 203.955383,130.642471 203.096085,129.045624 
	C199.010147,131.768600 196.111282,135.579346 193.023880,139.156891 
	C177.023575,157.697311 163.047211,177.848343 147.369324,196.643250 
	C141.505173,203.673279 135.522049,210.666321 127.381744,215.275299 
	C119.046547,219.994583 111.349068,215.992538 110.710938,206.423508 
	C110.360809,201.173309 110.648323,195.880554 110.648323,189.175079 
	C105.901535,194.790970 101.982758,199.387070 98.119499,204.029373 
	C97.273499,205.045944 97.952705,206.236801 97.996315,207.374939 
	C98.256561,214.166641 99.392563,221.054382 97.060974,227.672150 
	C95.900520,230.965851 94.277512,234.242615 89.922264,234.321411 
	C88.370354,234.349503 86.793831,234.271912 86.363068,232.372055 
	C85.988190,230.718719 86.765160,229.414627 88.112480,228.533768 
	C90.213890,227.159927 93.530121,227.879700 94.510429,224.515640 
	C95.954910,219.558701 95.854912,214.638016 93.856323,208.867294 
	C91.409538,208.921234 90.227470,210.956451 88.692680,212.330322 
	C81.964050,218.353592 74.997444,223.875671 66.299889,227.001205 
	C53.132992,231.732819 41.232380,223.427917 40.579193,209.449417 
	C39.503849,186.436539 50.341255,168.128616 63.096439,150.593628 
	C69.594948,141.659912 77.609093,134.186417 87.418030,128.716934 
	C93.471420,125.341576 99.894295,124.877914 106.320251,125.920349 
	C116.197678,127.522690 120.446465,138.753754 115.675148,149.573120 
	C109.969505,162.511215 101.418495,173.215744 89.918236,181.405777 
	C86.549812,183.804642 85.915619,185.350494 88.904182,188.683456 
	C91.716217,191.819534 93.580116,195.805786 96.329872,200.160263 
	C103.892189,191.723190 111.886482,184.652359 114.859901,173.257507 
	C120.664558,151.012589 129.834854,130.239975 145.376755,112.374634 
M61.472584,162.965240 
	C56.499107,170.683060 52.102264,178.749405 49.102295,187.405289 
	C46.555107,194.754745 44.028908,202.260696 44.359600,210.232162 
	C44.787132,220.537857 52.357288,226.032135 62.273235,224.246185 
	C71.334343,222.614197 77.878548,217.024506 84.522575,211.544418 
	C94.660538,203.182465 94.704216,199.821136 85.774750,189.786667 
	C83.639160,187.386795 81.677444,186.086655 78.048584,186.961411 
	C74.436943,187.832047 70.404404,188.082153 66.781021,186.305542 
	C64.557716,185.215424 62.853359,183.453064 63.519066,180.759338 
	C64.151039,178.202133 66.381531,177.874817 68.692307,177.825058 
	C72.514015,177.742783 75.774597,179.543167 79.143471,180.887939 
	C81.328430,181.760132 83.274902,182.053909 85.262489,180.621780 
	C99.326515,170.488159 109.624474,157.574280 114.268265,140.655228 
	C115.616707,135.742386 112.455406,131.016891 107.640488,129.291412 
	C102.715477,127.526497 98.108757,128.493225 93.695328,130.678482 
	C79.564873,137.675003 70.429268,149.735901 61.472584,162.965240 
M73.585785,184.621689 
	C74.808273,184.486832 76.344116,184.966751 76.789902,182.734711 
	C74.557846,182.327576 72.435043,179.201752 70.325089,181.959549 
	C69.059227,183.614075 71.721886,183.958908 73.585785,184.621689 
z"/>
</svg>