<svg xmlns="http://www.w3.org/2000/svg" width="430" height="430" style="width:100%;height:100%;transform:translate3d(0,0,0);content-visibility:visible" viewBox="0 0 430 430"><defs><clipPath id="a"><path d="M0 0h430v430H0z"/></clipPath><clipPath id="e"><path d="M0 0h430v430H0z"/></clipPath><clipPath id="d"><path d="M0 0h430v430H0z"/></clipPath><clipPath id="c"><path d="M0 0h430v430H0z"/></clipPath><clipPath id="b"><path d="M0 0h430v430H0z"/></clipPath></defs><g fill="none" clip-path="url(#a)"><g clip-path="url(#b)" style="display:none"><path class="secondary" style="display:none"/><path class="secondary" style="display:none"/><path class="primary" style="display:none"/></g><g clip-path="url(#c)" style="display:none"><path class="secondary" style="display:none"/><path class="secondary" style="display:none"/><path class="primary" style="display:none"/></g><g clip-path="url(#d)" style="display:none"><path class="secondary" style="display:none"/><path class="primary" style="display:none"/></g><g stroke-linecap="round" stroke-linejoin="round" stroke-width="18" clip-path="url(#e)" style="display:block"><path stroke="#E4D1F9" d="m-80 79.062 160-160m0 125v-125m-125 0H80" class="secondary" style="display:block" transform="translate(295 135)"/><path stroke="#FFF" d="M155 4.903V136c0 10.493-8.507 19-19 19h-272c-10.493 0-19-8.507-19-19v-272c0-10.493 8.507-19 19-19H-4.756" class="primary" style="display:block" transform="translate(210 220)"/></g></g></svg>